<svg viewBox="0 0 1200 900" xmlns="http://www.w3.org/2000/svg">
  <defs>
    <style>text { font-family: 'Inter', sans-serif; }</style>
    <linearGradient id="hg" x1="0%" y1="0%" x2="100%" y2="0%">
      <stop offset="0%" style="stop-color:#1E40AF"/><stop offset="100%" style="stop-color:#3B82F6"/>
    </linearGradient>
    <filter id="sh"><feDropShadow dx="0" dy="2" stdDeviation="6" flood-opacity="0.08"/></filter>
  </defs>
  <rect width="1200" height="900" fill="#F3F4F6"/>
  <rect width="1200" height="64" fill="url(#hg)"/>
  <text x="40" y="40" fill="white" font-size="20" font-weight="700">🃏 CardTrade Market</text>

  <rect x="350" y="220" width="500" height="400" rx="12" fill="white" filter="url(#sh)"/>
  <text x="600" y="270" text-anchor="middle" font-size="24" font-weight="700" fill="#111827">CAMBIAR CONTRASEÑA</text>

  <text x="400" y="315" font-size="13" font-weight="500" fill="#374151">Contraseña Actual</text>
  <rect x="400" y="325" width="400" height="44" rx="8" fill="white" stroke="#D1D5DB" stroke-width="1.5"/>
  <text x="420" y="353" fill="#9CA3AF" font-size="14">🔒 ••••••••</text>

  <text x="400" y="390" font-size="13" font-weight="500" fill="#374151">Nueva Contraseña</text>
  <rect x="400" y="400" width="400" height="44" rx="8" fill="white" stroke="#D1D5DB" stroke-width="1.5"/>
  <text x="420" y="428" fill="#9CA3AF" font-size="14">🔒 ••••••••</text>
  <rect x="400" y="450" width="380" height="6" rx="3" fill="#E5E7EB"/>
  <rect x="400" y="450" width="280" height="6" rx="3" fill="#10B981"/>
  <text x="780" y="456" font-size="11" fill="#10B981">Fuerte</text>

  <text x="400" y="485" font-size="13" font-weight="500" fill="#374151">Confirmar Nueva Contraseña</text>
  <rect x="400" y="495" width="400" height="44" rx="8" fill="white" stroke="#D1D5DB" stroke-width="1.5"/>
  <text x="420" y="523" fill="#9CA3AF" font-size="14">🔒 ••••••••</text>

  <rect x="400" y="560" width="400" height="48" rx="8" fill="#3B82F6"/>
  <text x="600" y="590" text-anchor="middle" fill="white" font-size="15" font-weight="600">GUARDAR CAMBIOS</text>
</svg>