<svg viewBox="0 0 1200 900" xmlns="http://www.w3.org/2000/svg">
  <defs>
    
    <linearGradient id="hg" x1="0%" y1="0%" x2="100%" y2="0%">
      <stop offset="0%" style="stop-color:#1E40AF"/><stop offset="100%" style="stop-color:#3B82F6"/>
    </linearGradient>
    <filter id="sh"><feDropShadow dx="0" dy="2" stdDeviation="6" flood-opacity="0.08"/></filter>
  </defs>
  <rect width="1200" height="900" fill="#F3F4F6"/>
  <rect width="1200" height="64" fill="url(#hg)"/>
  <text x="40" y="40" fill="white" font-size="20" font-weight="700">🃏 CardTrade Market</text>

  <rect x="350" y="180" width="500" height="500" rx="12" fill="white" filter="url(#sh)"/>
  <text x="600" y="235" text-anchor="middle" font-size="24" font-weight="700" fill="#111827">INICIAR SESIÓN</text>

  <text x="400" y="280" font-size="13" font-weight="500" fill="#374151">Correo Electrónico</text>
  <rect x="400" y="290" width="400" height="44" rx="8" fill="white" stroke="#D1D5DB" stroke-width="1.5"/>
  <text x="420" y="318" fill="#9CA3AF" font-size="14">📧 usuario@correo.com</text>

  <text x="400" y="355" font-size="13" font-weight="500" fill="#374151">Contraseña</text>
  <rect x="400" y="365" width="400" height="44" rx="8" fill="white" stroke="#D1D5DB" stroke-width="1.5"/>
  <text x="420" y="393" fill="#9CA3AF" font-size="14">🔒 ••••••••</text>
  <text x="760" y="393" fill="#3B82F6" font-size="12" font-weight="500">Mostrar</text>

  <text x="720" y="435" text-anchor="end" font-size="13" fill="#3B82F6" font-weight="500">¿Olvidaste tu contraseña?</text>

  <rect x="400" y="455" width="400" height="48" rx="8" fill="#3B82F6"/>
  <text x="600" y="485" text-anchor="middle" fill="white" font-size="15" font-weight="600">INICIAR SESIÓN</text>

  <line x1="400" y1="525" x2="800" y2="525" stroke="#E5E7EB" stroke-width="1"/>
  <text x="600" y="533" text-anchor="middle" font-size="12" fill="#9CA3AF">O continúa con</text>

  <rect x="400" y="555" width="190" height="44" rx="8" fill="white" stroke="#D1D5DB" stroke-width="1.5"/>
  <text x="495" y="583" text-anchor="middle" font-size="14" fill="#374151">🔵 Google</text>
  <rect x="610" y="555" width="190" height="44" rx="8" fill="white" stroke="#D1D5DB" stroke-width="1.5"/>
  <text x="705" y="583" text-anchor="middle" font-size="14" fill="#374151">📘 Facebook</text>

  <text x="600" y="635" text-anchor="middle" font-size="14" fill="#6B7280">¿No tienes cuenta? <tspan fill="#3B82F6" font-weight="500">Regístrate aquí</tspan></text>
</svg>