<svg viewBox="0 0 1200 900" xmlns="http://www.w3.org/2000/svg">
  <defs>
    <style>text { font-family: 'Inter', sans-serif; }</style>
    <linearGradient id="hg" x1="0%" y1="0%" x2="100%" y2="0%">
      <stop offset="0%" style="stop-color:#1E40AF"/><stop offset="100%" style="stop-color:#3B82F6"/>
    </linearGradient>
    <filter id="sh"><feDropShadow dx="0" dy="2" stdDeviation="6" flood-opacity="0.08"/></filter>
  </defs>
  <rect width="1200" height="900" fill="#F3F4F6"/>
  <rect width="1200" height="64" fill="url(#hg)"/>
  <text x="40" y="40" fill="white" font-size="20" font-weight="700">🃏 CardTrade Market</text>

  <text x="60" y="110" font-size="24" font-weight="700" fill="#111827">MI COLECCIÓN</text>
  <text x="60" y="135" font-size="14" fill="#6B7280">127 cartas • Valor estimado: $12,450 MXN</text>

  <!-- Collection Selector -->
  <rect x="60" y="155" width="1080" height="50" rx="8" fill="white" filter="url(#sh)"/>
  <text x="80" y="188" font-size="13" font-weight="500" fill="#374151">Colección:</text>
  <rect x="170" y="165" width="200" height="36" rx="6" fill="white" stroke="#D1D5DB" stroke-width="1.5"/>
  <text x="270" y="188" text-anchor="middle" fill="#111827" font-size="13">Mi Colección Principal ▼</text>
  <text x="400" y="188" font-size="13" fill="#6B7280">Pokémon Vintage ▼</text>
  <text x="550" y="188" font-size="13" fill="#6B7280">Magic Legacy ▼</text>
  <rect x="900" y="165" width="200" height="36" rx="6" fill="#3B82F6"/>
  <text x="1000" y="188" text-anchor="middle" fill="white" font-size="13" font-weight="600">+ Nueva Colección</text>

  <!-- Filters -->
  <rect x="60" y="225" width="1080" height="44" rx="8" fill="white" filter="url(#sh)"/>
  <rect x="80" y="233" width="160" height="28" rx="4" fill="#3B82F6"/>
  <text x="160" y="251" text-anchor="middle" fill="white" font-size="11" font-weight="600">Todas (127)</text>
  <text x="280" y="251" font-size="12" fill="#6B7280">Pokémon (89)</text>
  <text x="380" y="251" font-size="12" fill="#6B7280">Magic (28)</text>
  <text x="480" y="251" font-size="12" fill="#6B7280">Yu-Gi-Oh! (10)</text>
  <text x="580" y="251" font-size="12" fill="#6B7280">Graded (15)</text>
  <text x="900" y="251" font-size="12" fill="#6B7280">Ordenar: Recientes ▼</text>

  <!-- Grid -->
  <g transform="translate(60, 290)">
    <rect width="220" height="200" rx="12" fill="white" filter="url(#sh)"/>
    <rect width="220" height="130" rx="12" fill="#FEF3C7"/>
    <text x="110" y="75" text-anchor="middle" font-size="40">🃏</text>
    <text x="12" y="155" font-size="13" font-weight="600" fill="#111827">Charizard ex</text>
    <text x="12" y="175" font-size="11" fill="#6B7280">Obsidian Flames • UR</text>
    <text x="12" y="190" font-size="13" fill="#3B82F6" font-weight="600">$45.00</text>
    <text x="190" y="190" font-size="11" fill="#10B981">📈 +12%</text>
  </g>

  <g transform="translate(300, 290)">
    <rect width="220" height="200" rx="12" fill="white" filter="url(#sh)"/>
    <rect width="220" height="130" rx="12" fill="#DBEAFE"/>
    <text x="110" y="75" text-anchor="middle" font-size="40">🃏</text>
    <text x="12" y="155" font-size="13" font-weight="600" fill="#111827">Black Lotus</text>
    <text x="12" y="175" font-size="11" fill="#6B7280">Beta • Rare</text>
    <text x="12" y="190" font-size="13" fill="#3B82F6" font-weight="600">$8,500</text>
    <text x="190" y="190" font-size="11" fill="#EF4444">📉 -3%</text>
  </g>

  <g transform="translate(540, 290)">
    <rect width="220" height="200" rx="12" fill="white" filter="url(#sh)"/>
    <rect width="220" height="130" rx="12" fill="#FEF3C7"/>
    <text x="110" y="75" text-anchor="middle" font-size="40">🃏</text>
    <text x="12" y="155" font-size="13" font-weight="600" fill="#111827">Pikachu VMAX</text>
    <text x="12" y="175" font-size="11" fill="#6B7280">Vivid Voltage • VMAX</text>
    <text x="12" y="190" font-size="13" fill="#3B82F6" font-weight="600">$28.00</text>
    <text x="190" y="190" font-size="11" fill="#10B981">📈 +5%</text>
  </g>

  <g transform="translate(780, 290)">
    <rect width="220" height="200" rx="12" fill="white" filter="url(#sh)"/>
    <rect width="220" height="130" rx="12" fill="#FCE7F3"/>
    <text x="110" y="75" text-anchor="middle" font-size="40">🃏</text>
    <text x="12" y="155" font-size="13" font-weight="600" fill="#111827">Blue-Eyes White</text>
    <text x="12" y="175" font-size="11" fill="#6B7280">LOB • Ultra Rare</text>
    <text x="12" y="190" font-size="13" fill="#3B82F6" font-weight="600">$125.00</text>
    <text x="190" y="190" font-size="11" fill="#6B7280">→</text>
  </g>

  <g transform="translate(1020, 290)">
    <rect width="120" height="200" rx="12" fill="white" filter="url(#sh)" stroke="#D1D5DB" stroke-width="2" stroke-dasharray="8,4"/>
    <text x="60" y="110" text-anchor="middle" font-size="40">+</text>
    <text x="60" y="140" text-anchor="middle" font-size="13" fill="#6B7280">Agregar carta</text>
  </g>

  <!-- Second Row -->
  <g transform="translate(60, 510)">
    <rect width="220" height="200" rx="12" fill="white" filter="url(#sh)"/>
    <rect width="220" height="130" rx="12" fill="#FEF3C7"/>
    <text x="110" y="75" text-anchor="middle" font-size="40">🃏</text>
    <text x="12" y="155" font-size="13" font-weight="600" fill="#111827">Mewtwo VSTAR</text>
    <text x="12" y="175" font-size="11" fill="#6B7280">Brilliant Stars • VSTAR</text>
    <text x="12" y="190" font-size="13" fill="#3B82F6" font-weight="600">$52.00</text>
    <text x="190" y="190" font-size="11" fill="#10B981">📈 +8%</text>
  </g>

  <g transform="translate(300, 510)">
    <rect width="220" height="200" rx="12" fill="white" filter="url(#sh)"/>
    <rect width="220" height="130" rx="12" fill="#D1FAE5"/>
    <text x="110" y="75" text-anchor="middle" font-size="40">🃏</text>
    <text x="12" y="155" font-size="13" font-weight="600" fill="#111827">Charizard (Base)</text>
    <text x="12" y="175" font-size="11" fill="#6B7280">Base Set • 1st Ed. • PSA 9</text>
    <text x="12" y="190" font-size="13" fill="#3B82F6" font-weight="600">$3,200</text>
    <text x="190" y="190" font-size="11" fill="#10B981">📈 +25%</text>
  </g>
</svg>